<svg width="356" height="90" viewBox="0 0 356 90" fill="none" xmlns="http://www.w3.org/2000/svg">
<path d="M106.46 30.0636L106.444 32.9055C106.444 33.3369 106.429 33.7527 106.403 34.1258C106.315 35.4044 105.869 36.2662 104.994 36.8686C104.276 37.3573 103.326 37.6147 102.195 37.6147C101.391 37.6147 100.672 37.5001 100.042 37.2427C99.5966 37.0687 99.1787 36.8394 98.8775 36.4955C98.2887 35.8483 98.073 35.0303 98.0876 33.5943L98.1157 30.0491C98.1293 28.7423 98.0303 27.9534 97.8281 27.3354L98.1897 27.3511H99.1224L99.582 27.3354L99.4965 28.3848C99.4799 28.6287 99.4798 29.1456 99.4684 29.9355L99.4371 33.0211C99.4236 34.3436 99.4976 34.7583 99.7247 35.2908C100.099 36.1381 101.104 36.6695 102.294 36.6695C102.998 36.6695 103.631 36.5101 104.134 36.2235C104.536 35.9797 104.852 35.6347 105.024 35.2471C105.268 34.6718 105.326 34.0695 105.34 32.6491L105.355 30.0647C105.371 28.7579 105.269 27.968 105.068 27.35L105.441 27.3646H106.244L106.65 27.35C106.489 28.3702 106.46 28.6693 106.46 30.0636Z" fill="#DFD4A6"/>
<path d="M119.338 27.9805C119.296 28.3265 119.266 28.6704 119.266 29.0278C119.266 29.3165 119.253 29.8907 119.253 30.7525L119.237 34.8011C119.237 35.0303 119.237 35.3179 119.253 35.6764C119.296 36.4236 119.31 36.6956 119.381 37.5001H118.838L118.248 37.5136C117.703 36.682 117.475 36.3653 116.998 35.7629L112.763 30.4076L111.615 28.9163L111.645 29.6479L111.63 34.4436C111.63 35.6347 111.744 36.7123 111.959 37.3448L111.586 37.3156H110.768L110.352 37.3448C110.41 37.0561 110.438 36.8425 110.451 36.6977C110.496 36.3673 110.537 36.0234 110.537 35.6639V34.428L110.553 30.0491C110.553 28.7423 110.482 27.9669 110.28 27.35L111.025 27.3792L112.306 27.3354C112.807 28.1983 113.023 28.5141 113.582 29.231L117.387 34.1268L118.192 35.147L118.148 34.1268L118.161 30.74C118.161 29.304 118.033 28.0263 117.805 27.35L118.148 27.3657H119.025L119.441 27.35C119.381 27.6366 119.354 27.8377 119.338 27.9805Z" fill="#DFD4A6"/>
<path d="M124.739 37.3134H123.692L123.289 37.3416L123.374 36.6965C123.46 36.0786 123.476 35.9347 123.476 34.6134L123.491 30.0469C123.491 28.7693 123.403 27.9512 123.204 27.3333L123.563 27.3489H124.496L124.955 27.3333L124.87 28.3827C124.855 28.6265 124.841 29.1434 124.841 29.9333L124.825 34.629C124.825 35.9348 124.913 36.7236 125.113 37.3416L124.739 37.3134Z" fill="#DFD4A6"/>
<path d="M136.838 28.0826L136.447 28.9006L136.048 29.7906L133.62 35.6336C133.191 36.6674 133.133 36.8414 132.989 37.5584L132.687 37.5292H132.056L131.695 37.5584C131.61 37.028 131.582 36.8696 131.324 36.1818L128.985 29.8489C128.496 28.514 128.138 27.8387 127.835 27.35L128.195 27.3656H129.33L129.831 27.3344C129.859 27.5938 129.872 27.7939 129.9 27.9242C129.96 28.2837 130.146 28.8725 130.448 29.7333L132.027 34.3425L132.529 35.9213L133.203 34.2122L134.753 30.1637C135.143 29.158 135.327 28.4692 135.327 27.9242C135.327 27.7231 135.313 27.6074 135.229 27.35L135.686 27.3656H136.763L137.178 27.3344L137.206 27.3927C137.037 27.6949 136.907 27.9242 136.838 28.0826Z" fill="#DFD4A6"/>
<path d="M145.964 36.3235L145.835 36.8821L145.734 37.3989C145.474 37.3854 145.287 37.3708 145.172 37.3708C145.115 37.3708 144.542 37.3573 143.438 37.3427L141.513 37.3145L140.09 37.3427L140.178 36.6976C140.263 36.064 140.278 35.9369 140.278 34.6145L140.292 30.048C140.292 28.7412 140.221 27.9669 140.019 27.3489L140.78 27.3625H142.776C144.399 27.3625 144.558 27.3489 145.518 27.3208L145.331 27.7804L145.143 28.3681L145.044 28.7276L144.87 28.7558C144.614 28.4682 144.484 28.3816 144.141 28.2806C143.751 28.1659 143.279 28.1086 142.745 28.1086C142.517 28.1086 142.131 28.1232 141.699 28.1503L141.64 29.8875V31.5965H143.534C144.14 31.5965 144.397 31.5684 145.085 31.51L145.215 31.6247L145.013 32.0697L144.825 32.5594C144.54 32.5303 144.324 32.5157 144.181 32.5157C143.693 32.4875 143.233 32.4719 142.774 32.4719C142.386 32.4719 142.198 32.4719 141.624 32.5021V34.6551C141.624 34.827 141.639 35.0428 141.652 35.3147C141.681 35.8316 141.739 36.0474 141.911 36.2328C142.141 36.4621 142.47 36.5351 143.305 36.5351C143.834 36.5351 144.25 36.5069 144.64 36.434C144.824 36.4058 145.027 36.3485 145.214 36.262C145.471 36.1463 145.614 36.0463 145.902 35.7733L146.09 35.8598L145.964 36.3235Z" fill="#DFD4A6"/>
<path d="M157.025 37.3416L156.653 37.3572L155.562 37.3853L154.957 37.427L154.788 37.1696L154.599 36.8404C154.528 36.6976 154.413 36.5235 154.283 36.3078C153.678 35.3314 153.047 34.4268 152.286 33.3649C151.642 32.4604 151.369 32.2301 151.024 31.8727C151.712 31.8581 152.143 31.8289 152.502 31.6851C153.192 31.4266 153.609 30.6659 153.609 29.8322C153.609 28.7276 152.89 28.0085 151.684 28.0085C151.426 28.0085 151.195 28.0242 150.665 28.095C150.634 28.6995 150.621 28.8432 150.621 29.9333L150.607 34.629C150.607 35.9358 150.694 36.7257 150.893 37.3416L150.522 37.3145H149.473L149.069 37.3416C149.228 36.3224 149.257 35.9775 149.257 34.6144L149.272 30.0479C149.272 28.7411 149.201 27.9669 148.997 27.3489L149.746 27.3781L151.11 27.3343C151.483 27.3197 151.814 27.3197 152.128 27.3197C153.349 27.3197 153.795 27.4344 154.283 27.821C154.756 28.2097 155.015 28.8547 155.015 29.5581C155.015 30.1605 154.814 30.793 154.439 31.1943C154.124 31.5267 153.722 31.7986 153.033 32.1561L153.363 32.6011L154.727 34.554C155.358 35.4731 155.99 36.263 156.421 36.7069C156.652 36.9372 156.753 37.0238 157.038 37.2395L157.025 37.3416Z" fill="#DFD4A6"/>
<path d="M161.654 37.672C161.48 37.672 161.294 37.6585 161.093 37.6449C160.503 37.5866 160.23 37.5292 159.527 37.2708L159.684 36.7685L159.856 36.1089L159.944 35.7504L160.144 35.7066C160.404 36.1089 160.533 36.2673 160.803 36.4392C161.165 36.6831 161.666 36.8269 162.097 36.8269C163.26 36.8269 164.12 36.0515 164.12 35.0324C164.12 34.6301 163.99 34.2424 163.748 33.9413C163.447 33.5682 163.058 33.2816 162.183 32.8075C160.876 32.1051 160.689 31.9759 160.302 31.5872C159.87 31.1412 159.627 30.5242 159.627 29.8635C159.627 28.1545 160.978 27.0061 163.017 27.0061C163.189 27.0061 163.359 27.0218 163.533 27.0353C164.092 27.078 164.393 27.151 165.128 27.3948L164.967 27.796L164.754 28.4703L164.682 28.7714L164.495 28.7996C163.978 28.0961 163.462 27.8388 162.614 27.8388C161.55 27.8388 160.848 28.4557 160.848 29.3738C160.848 29.8062 161.019 30.1929 161.337 30.4805C161.666 30.7691 162.01 30.9973 162.945 31.5007C164.121 32.1332 164.48 32.3906 164.868 32.8784C165.214 33.3233 165.385 33.8704 165.385 34.4582C165.385 36.3235 163.836 37.672 161.654 37.672Z" fill="#DFD4A6"/>
<path d="M170.052 37.3134H169.005L168.601 37.3416L168.687 36.6965C168.773 36.0786 168.789 35.9347 168.789 34.6134L168.806 30.0469C168.806 28.7693 168.717 27.9512 168.517 27.3333L168.876 27.3489H169.809L170.268 27.3333L170.182 28.3827C170.169 28.6265 170.154 29.1434 170.154 29.9333L170.139 34.629C170.139 35.9348 170.227 36.7236 170.426 37.3416L170.052 37.3134Z" fill="#DFD4A6"/>
<path d="M181.545 36.1495C180.499 36.9988 179.278 37.3573 177.441 37.3573C177.097 37.3573 176.508 37.3135 175.645 37.3135H174.598L174.194 37.3416L174.281 36.6966C174.366 36.0786 174.382 35.9348 174.382 34.6134L174.399 30.1053C174.399 28.7975 174.312 27.9659 174.11 27.3479C174.541 27.3635 174.297 27.3635 175.417 27.3635C176.006 27.3635 176.952 27.3479 177.542 27.3479C178.042 27.3479 178.475 27.3479 178.834 27.3635C180.011 27.3906 180.73 27.5355 181.362 27.8648C182.697 28.5672 183.487 30.0907 183.487 31.9144C183.487 33.6224 182.797 35.1595 181.545 36.1495ZM180.959 29.2299C180.241 28.4265 179.352 28.1232 177.613 28.1232C177.155 28.1232 176.694 28.1545 175.791 28.1962L175.746 29.9333L175.733 34.5988C175.733 34.7854 175.746 35.0167 175.762 35.2606C175.79 35.7774 175.847 35.9932 176.018 36.1797C176.12 36.2787 176.234 36.3517 176.379 36.3944C176.68 36.4788 177.211 36.5236 177.741 36.5236C180.369 36.5236 181.964 34.9292 181.964 32.2739C181.964 31.0401 181.606 29.9625 180.959 29.2299Z" fill="#DFD4A6"/>
<path d="M194.102 37.3135H193.183L192.552 37.3573L192.453 36.7518C192.365 36.2933 192.221 35.8483 191.934 35.0167L191.447 33.5953L190.57 33.565H188.863L187.857 33.5953L187.369 34.9021C187.096 35.6482 186.952 36.2505 186.952 36.682C186.952 36.8977 186.967 37.0404 187.053 37.3416L186.607 37.3135H185.617L185.23 37.3416L185.172 37.2551L185.516 36.608C185.617 36.4214 185.747 36.1495 185.918 35.7899C186.09 35.419 186.219 35.1146 186.308 34.901L188.689 29.0413C189.035 28.2097 189.107 27.9658 189.291 27.2468L189.593 27.2051L190.226 27.103L190.541 27.0457C190.684 27.649 190.743 27.8772 190.988 28.5098L193.37 34.8426C193.556 35.3595 193.858 36.0338 194.204 36.7226C194.331 36.9811 194.388 37.0821 194.546 37.3395L194.102 37.3135ZM189.724 28.6411L188.16 32.7626L189.008 32.7918H190.4L191.145 32.7626L189.724 28.6411Z" fill="#DFD4A6"/>
<path d="M204.795 36.1495C203.745 36.9988 202.527 37.3573 200.689 37.3573C200.344 37.3573 199.756 37.3135 198.893 37.3135H197.847L197.441 37.3416L197.529 36.6966C197.616 36.0786 197.631 35.9348 197.631 34.6134L197.645 30.1053C197.645 28.7975 197.559 27.9659 197.359 27.3479C197.79 27.3635 197.547 27.3635 198.663 27.3635C199.253 27.3635 200.201 27.3479 200.79 27.3479C201.291 27.3479 201.723 27.3479 202.081 27.3635C203.257 27.3906 203.976 27.5355 204.608 27.8648C205.943 28.5672 206.733 30.0907 206.733 31.9144C206.732 33.6224 206.044 35.1595 204.795 36.1495ZM204.207 29.2299C203.488 28.4265 202.597 28.1232 200.86 28.1232C200.4 28.1232 199.941 28.1545 199.036 28.1962L198.992 29.9333L198.979 34.5988C198.979 34.7854 198.992 35.0167 199.009 35.2606C199.035 35.7774 199.094 35.9932 199.266 36.1797C199.365 36.2787 199.482 36.3517 199.625 36.3944C199.926 36.4788 200.458 36.5236 200.989 36.5236C203.617 36.5236 205.21 34.9292 205.21 32.2739C205.21 31.0401 204.851 29.9625 204.207 29.2299Z" fill="#DFD4A6"/>
<path d="M99.7917 64.8968C101.099 65.768 102.655 66.4224 104.459 66.4224C106.047 66.4224 107.634 65.8628 107.634 64.3059C107.634 60.6044 98.859 61.0713 98.859 54.7853C98.859 51.7049 101.316 48.9349 105.736 48.9349C107.915 48.9349 109.75 49.4331 110.931 50.025V53.8516C109.158 52.9814 107.507 52.5125 105.861 52.5125C104.552 52.5125 103.403 52.9814 103.403 54.4112C103.403 57.897 112.176 57.3999 112.176 63.9328C112.176 67.6667 108.91 69.9697 104.616 69.9697C102.219 69.9697 99.823 69.3163 98.1733 68.1023L99.7917 64.8968Z" fill="#DFD4A6"/>
<path d="M117.013 66.1421C116.421 65.0208 116.11 63.5911 116.11 61.9091V49.1517H120.372V61.6611C120.372 62.7199 120.59 63.6526 120.964 64.3685C121.681 65.7065 123.048 66.4225 124.947 66.4225C126.813 66.4225 128.183 65.7065 128.899 64.3685C129.304 63.6526 129.489 62.7199 129.489 61.6309V49.1517H133.753V61.9091C133.753 63.59 133.44 65.0198 132.851 66.1421C131.512 68.7547 128.712 69.9687 124.916 69.9687C121.12 69.9687 118.351 68.7547 117.013 66.1421Z" fill="#DFD4A6"/>
<path d="M138.89 49.1517H145.018C146.857 49.1517 148.224 49.4321 149.313 49.9291C151.679 50.9556 152.58 52.9168 152.58 55.0959C152.58 57.7699 150.901 59.6374 148.597 60.3543V60.4168C149.219 60.7597 150.124 61.8789 151.21 63.7776L154.54 69.6582H149.655L146.95 64.7426C145.923 62.8126 145.205 62.0352 144.708 61.9102H143.153V69.6582H138.891V49.1517H138.89ZM144.737 58.4556C145.671 58.4556 146.262 58.3014 146.793 58.02C147.601 57.5219 148.162 56.682 148.162 55.5315C148.162 54.4425 147.664 53.5077 146.762 53.0408C146.296 52.7616 145.704 52.6053 144.77 52.6053H143.152V58.4546H144.737V58.4556Z" fill="#DFD4A6"/>
<path d="M173.802 68.2888C171.407 69.5977 169.104 69.9687 166.988 69.9687C160.11 69.9687 156.439 65.6138 156.439 59.6071C156.439 53.7255 160.736 48.9349 167.515 48.9349C169.789 48.9349 171.656 49.3393 172.993 49.9322V53.8516C171.346 52.9793 169.572 52.5146 167.611 52.5146C163.13 52.5146 160.983 55.7816 160.983 59.5467C160.983 63.5921 163.504 66.4224 167.517 66.4224C169.603 66.4224 171.129 65.7993 172.622 64.9301L173.802 68.2888Z" fill="#DFD4A6"/>
<path d="M176.011 59.4508C176.011 53.2284 180.303 48.9349 186.464 48.9349C192.625 48.9349 196.92 53.2586 196.92 59.4508C196.92 65.7367 192.595 69.9687 186.464 69.9687C180.303 69.9687 176.011 65.7065 176.011 59.4508ZM192.377 59.4508C192.377 55.001 190.011 52.5114 186.464 52.5114C182.949 52.5114 180.552 54.9697 180.552 59.4508C180.552 63.9641 182.949 66.4203 186.464 66.4203C189.981 66.4214 192.377 63.9641 192.377 59.4508Z" fill="#DFD4A6"/>
<path d="M201.169 49.1517H205.433V66.0494H212.59V69.6572H201.169V49.1517Z" fill="#DFD4A6"/>
<path d="M214.366 59.4508C214.366 53.2284 218.66 48.9349 224.821 48.9349C230.98 48.9349 235.276 53.2586 235.276 59.4508C235.276 65.7367 230.95 69.9687 224.821 69.9687C218.66 69.9687 214.366 65.7065 214.366 59.4508ZM230.732 59.4508C230.732 55.001 228.368 52.5114 224.821 52.5114C221.306 52.5114 218.908 54.9697 218.908 59.4508C218.908 63.9641 221.306 66.4203 224.821 66.4203C228.338 66.4214 230.732 63.9641 230.732 59.4508Z" fill="#DFD4A6"/>
<path d="M239.527 49.1517H243.385L248.641 56.5892C249.328 57.5552 249.827 58.3316 250.293 59.1403H250.355C250.76 58.3618 251.288 57.4906 251.94 56.4642L256.702 49.1517H260.59V69.6572H256.328V58.6442C256.328 57.8335 256.328 56.8998 256.358 56.1859H256.328C256.08 56.7153 255.269 57.897 254.926 58.4243L251.256 64.0882H249.327L245.189 58.2399C244.751 57.649 244.255 56.9956 243.819 56.2172H243.757C243.787 56.9331 243.787 57.8668 243.787 58.5202V69.6582H239.525V49.1517H239.527Z" fill="#DFD4A6"/>
<path d="M265.877 49.1528H272.319C276.769 49.1528 278.759 51.7351 278.759 54.3477C278.759 56.0276 277.919 57.6772 276.331 58.4869V58.5495C278.79 59.2028 280.161 61.1943 280.161 63.4973C280.161 66.608 277.733 69.6593 272.879 69.6593H265.878V49.1528H265.877ZM271.758 57.5219C273.626 57.5219 274.592 56.4632 274.592 55.1261C274.592 53.7256 273.657 52.6355 271.666 52.6355H270.139V57.5209H271.758V57.5219ZM272.319 66.1724C274.685 66.1724 275.864 65.3648 275.864 63.4973C275.864 61.9102 274.683 61.0067 272.721 61.0067H270.138V66.1724H272.319Z" fill="#DFD4A6"/>
<path d="M288.548 49.1506H284.286V69.6561H288.548V49.1506Z" fill="#DFD4A6"/>
<path d="M299.418 49.058H302.871L311.242 69.6593H306.667L304.677 64.6478H297.707L295.81 69.6593H291.421L299.418 49.058ZM303.401 61.2255L302.187 57.772C301.69 56.2787 301.439 55.4054 301.255 54.7218H301.19C301.035 55.4377 300.724 56.3089 300.164 57.8012L298.921 61.2255H303.401Z" fill="#DFD4A6"/>
<path d="M329.101 69.6593L320.514 58.4254C319.766 57.4302 319.113 56.4955 318.399 55.593H318.336C318.429 56.3412 318.429 57.6168 318.429 58.612V69.6593H314.167V49.1528H318.429L326.673 59.95C327.484 60.9765 328.137 61.879 328.76 62.7804H328.822C328.76 61.6914 328.76 60.3242 328.76 59.3581V49.1528H333.023V69.6593H329.101Z" fill="#DFD4A6"/>
<path d="M343.942 49.058H347.395L355.766 69.6593H351.19L349.201 64.6478H342.23L340.333 69.6593H335.945L343.942 49.058ZM347.925 61.2255L346.711 57.772C346.213 56.2787 345.963 55.4054 345.778 54.7218H345.714C345.56 55.4377 345.248 56.3089 344.686 57.8012L343.444 61.2255H347.925Z" fill="#DFD4A6"/>
<path d="M44.1382 90C43.5087 90 43.0533 89.9896 42.7647 89.9812C42.499 89.9896 42.0425 90 41.4131 90C38.2826 89.999 33.3754 89.7634 27.7678 88.6598C19.8114 87.0915 13.6713 84.679 8.99333 81.2849C8.93602 81.2432 8.83285 81.1734 8.69841 81.0817L8.62234 81.0296C8.33472 80.8326 7.9356 80.5638 7.48541 80.1917C7.0373 79.8239 6.64653 79.4477 6.29638 79.0402C5.6211 78.2628 5.074 77.3426 4.7176 76.3766C4.30805 75.298 4.10588 74.11 4.10588 72.8439V20.8503L2.81575 20.1323C2.34681 19.8708 1.92267 19.5498 1.55585 19.182C1.00979 18.6432 0.566897 17.9502 0.313667 17.2374C0.103163 16.6611 0 16.0515 0 15.4314V9.64258C0 8.69531 0.280321 5.60756 3.88703 5.60756H22.6438C23.5546 5.0417 31.9737 0 42.5594 0H42.7751H42.9877C53.5723 0 61.9925 5.04065 62.9043 5.60756H81.6601C85.2709 5.60756 85.5481 8.69531 85.5481 9.64258V15.4314C85.5481 16.0515 85.4429 16.6611 85.2334 17.2374C84.9802 17.9502 84.5394 18.6432 83.9923 19.184C83.6275 19.5498 83.2024 19.8708 82.7324 20.1323L81.4402 20.8503V72.8439C81.4443 74.11 81.2401 75.297 80.8337 76.3766C80.4752 77.3426 79.9281 78.2628 79.2518 79.0402C78.9016 79.4487 78.5108 79.8249 78.0658 80.1917C77.6125 80.5627 77.2176 80.8316 76.9247 81.0296L76.8497 81.0817C76.7132 81.1734 76.6111 81.2432 76.5548 81.2849C71.8779 84.679 65.7368 87.0915 57.7803 88.6598C52.1759 89.7645 47.2686 90 44.1382 90Z" fill="#DFD4A6"/>
<path d="M60.5223 11.2339V15.1512C60.5223 15.5086 60.8892 15.8046 61.058 15.8994C63.8602 17.4782 64.4386 17.819 64.4386 18.5578V66.5486C64.4386 68.1618 63.8289 68.6016 62.642 69.1862C59.5865 70.692 52.8212 73.389 42.8275 73.389C32.8306 73.389 26.0674 70.692 23.0119 69.1862C21.8271 68.6005 21.2122 68.1618 21.2122 66.5486V18.5589C21.2122 17.8263 21.7823 17.4479 24.5334 15.9004C24.722 15.7931 25.1305 15.5784 25.1305 15.0636V11.3225C25.1305 10.815 24.8398 9.90628 23.9863 9.90628H5.81622C4.96483 9.90628 4.66992 10.5295 4.66992 11.3225V15.1522C4.66992 15.6201 5.19096 15.7681 5.42544 15.9004C8.03277 17.3708 8.54965 17.8398 8.54965 18.5589V72.2833C8.54965 75.3773 9.52819 76.26 10.6318 77.0603C23.0578 86.0849 42.8264 85.1647 42.8264 85.1647C42.8264 85.1647 61.6572 86.0849 74.0832 77.0603C75.1857 76.26 77.1022 75.3773 77.1022 72.2833V18.5589C77.1022 17.8158 77.8577 17.4969 80.711 15.9004C80.8694 15.8098 81.2112 15.6003 81.2112 15.1522V11.235C81.2112 10.7275 80.8433 9.85938 79.9919 9.85938H61.7395C60.8892 9.85833 60.5223 10.7264 60.5223 11.2339Z" fill="#8F141B"/>
<path d="M33.0221 33.5462C30.248 31.9153 29.1371 29.6977 28.6932 28.1252C28.2118 26.4183 28.3868 25.1094 28.3941 25.0552L28.8547 25.1198C28.8485 25.1698 28.2243 30.1823 33.2597 33.1429L33.0221 33.5462Z" fill="#8F141B"/>
<path d="M55.657 30.7451L55.2766 30.4731C57.1493 27.846 56.7314 25.0156 56.7272 24.9875L57.191 24.924C57.2097 25.0427 57.6391 27.9679 55.657 30.7451Z" fill="#8F141B"/>
<path d="M44.6145 68.5421C42.9513 68.5421 41.409 68.1982 40.0272 67.5167V67.7751C40.0272 67.9711 39.8688 68.1263 39.6749 68.1263H30.1116C29.9198 68.1263 29.7594 67.9711 29.7594 67.7751V53.02C29.7594 52.8272 29.9198 52.6699 30.1116 52.6699H37.3844C36.4809 51.9779 35.0511 50.8795 34.2477 50.2407C32.8981 49.1674 29.7583 46.2089 29.7583 41.9112C29.7583 36.6017 32.1916 33.7089 34.23 32.2134C37.078 30.1282 40.1616 29.9667 41.0411 29.9667C42.7064 29.9667 44.2445 30.3106 45.6285 30.9952V30.7337C45.6285 30.5398 45.7848 30.3835 45.9786 30.3835H55.543C55.7368 30.3835 55.8952 30.5398 55.8952 30.7337V45.4877C55.8952 45.6837 55.7368 45.8399 55.543 45.8399H48.2629C49.0653 46.459 50.3231 47.4302 51.4048 48.266C53.5734 49.9458 55.8963 53.0179 55.8963 56.5975C55.8963 62.0029 53.4557 64.8958 51.4079 66.3693C48.6141 68.3848 45.5013 68.5421 44.6145 68.5421ZM39.6749 66.5809C39.7364 66.5809 39.7948 66.5965 39.849 66.6267C41.2766 67.4437 42.8356 67.8397 44.6145 67.8397C45.4492 67.8397 48.3733 67.6918 50.9974 65.7983C52.9127 64.4196 55.1918 61.7038 55.1918 56.5965C55.1918 53.2722 53.0117 50.4002 50.9744 48.8224C49.2279 47.4677 47.0197 45.7639 47.0197 45.7639C46.9009 45.6732 46.8529 45.5169 46.9009 45.3731C46.9509 45.2314 47.0822 45.1355 47.2354 45.1355H55.1918V31.0838H46.334V31.5746C46.334 31.7028 46.2673 31.8164 46.1568 31.88C46.0484 31.9415 45.9171 31.9435 45.8066 31.88C44.3811 31.0661 42.8221 30.668 41.0422 30.668C40.2189 30.668 37.3239 30.8223 34.6468 32.7804C32.7377 34.1757 30.4617 36.8946 30.4617 41.9091C30.4617 45.9014 33.415 48.6786 34.6853 49.6884C35.9098 50.6638 38.6078 52.7199 38.636 52.7418C38.7558 52.8314 38.8017 52.9877 38.7558 53.1315C38.7058 53.2743 38.5713 53.3702 38.4223 53.3702H30.4617V67.4218H39.3227V66.93C39.3227 66.8039 39.3894 66.6903 39.4967 66.6257C39.552 66.5965 39.6135 66.5809 39.6749 66.5809Z" fill="#8F141B"/>
<path d="M44.6145 66.1567C42.0603 66.1567 40.6181 65.1615 39.8438 64.6259L39.6385 64.481C39.1623 64.1444 38.9267 63.9818 38.4474 64.036C37.7804 64.109 37.6408 64.5247 37.6408 64.8614V65.5273C37.6408 65.644 37.546 65.7388 37.4282 65.7388H32.3626C32.2438 65.7388 32.1489 65.644 32.1489 65.5273V55.2657C32.1489 55.149 32.2438 55.0542 32.3626 55.0542H39.7959C39.8417 55.0542 39.8907 55.0719 39.9282 55.1021C39.9449 55.1177 41.7446 56.5777 42.3115 56.9977L42.4292 57.0883C42.7106 57.3061 43.14 57.6334 43.6079 57.6334C43.9591 57.6334 44.2873 57.4593 44.6156 57.0956C44.8949 56.7924 45.0251 56.4652 45.0022 56.1234C44.9803 55.7545 44.7698 55.3824 44.4155 55.076L35.8244 48.4399C34.452 47.3614 32.1489 45.0781 32.1489 41.908C32.1489 34.3486 37.9659 32.3489 41.0432 32.3489C43.5974 32.3489 45.0366 33.3462 45.814 33.8808L46.0193 34.0246C46.4945 34.3591 46.7248 34.5196 47.2104 34.4685C47.8763 34.3956 48.0159 33.9787 48.0159 33.6421V32.9773C48.0159 32.8595 48.1118 32.7636 48.2275 32.7636H53.2963C53.413 32.7636 53.5089 32.8595 53.5089 32.9773V43.2367C53.5089 43.3566 53.413 43.4493 53.2963 43.4493H45.863C45.815 43.4493 45.7681 43.4327 45.7285 43.4024C45.7108 43.3899 43.9122 41.9258 43.3442 41.5079L43.2244 41.4162C42.944 41.2005 42.5178 40.8733 42.0499 40.8733C41.6977 40.8733 41.3705 41.0473 41.0401 41.4079C40.7629 41.7121 40.6327 42.0394 40.6546 42.3812C40.6764 42.7522 40.8869 43.1211 41.2412 43.4274L49.8334 50.0646C52.274 52.0352 53.5089 54.2299 53.5089 56.5954C53.5089 60.1261 52.3334 62.7605 50.0136 64.432C47.7961 66.0316 45.3211 66.1567 44.6145 66.1567Z" fill="#8F141B"/>
<path d="M42.7145 30.2856C37.4801 30.2856 33.9057 28.8475 31.8267 27.6408C29.5674 26.3267 28.5618 25.022 28.519 24.9678L28.8911 24.6843C28.9317 24.7354 32.924 29.8177 42.7145 29.8177C47.8323 29.8177 51.3192 28.4213 53.3398 27.251C55.5324 25.9818 56.5276 24.6968 56.537 24.6843L56.91 24.9678C56.8663 25.023 55.8606 26.3277 53.6003 27.6408C51.5255 28.8475 47.9511 30.2856 42.7145 30.2856Z" fill="#8F141B"/>
<path d="M59.6929 62.5823C59.6929 62.2134 59.6887 61.4985 59.6846 60.5221C59.6783 58.1753 59.6669 54.3987 59.6627 50.248V49.9666C59.6606 48.3962 59.6575 45.842 59.6575 44.2278C60.9976 43.4535 63.9634 40.125 59.5053 28.2847C58.9134 26.5569 58.2309 25.6003 57.7181 25.098C58.3674 24.7874 58.8947 24.1924 59.2104 23.6463C59.9805 22.3197 60.2338 20.5805 60.3682 19.6457C60.3984 19.4477 60.4182 19.2914 60.4412 19.1945C60.6444 18.2222 60.388 17.723 59.4845 17.352L58.3246 16.8695V11.2297C58.3246 10.1188 58.4278 10.0271 58.7675 9.71655C58.8384 9.64777 58.9249 9.57379 59.0166 9.47895C59.3803 9.11735 59.5345 8.68487 59.4522 8.26073C59.3803 7.90017 59.1041 7.38954 58.1965 7.00292C51.3394 4.01105 44.9701 3.78076 43.1798 3.78076C42.986 3.78076 42.8765 3.78388 42.8745 3.78388C42.8578 3.78388 42.7463 3.78076 42.5514 3.78076C40.7632 3.78076 34.3959 4.01209 27.5399 7.00292C26.626 7.38954 26.353 7.90017 26.2842 8.26073C26.1988 8.68591 26.353 9.11735 26.7156 9.47895C26.8001 9.56649 26.8824 9.63945 26.9543 9.7051C27.2961 10.0219 27.3868 10.1052 27.3868 11.2297L27.3888 16.8654C27.1148 16.9738 26.6385 17.1686 26.2175 17.3552C25.3161 17.7512 25.067 18.2326 25.2723 19.1945C25.2921 19.2914 25.3161 19.4477 25.3442 19.6457C25.4787 20.5805 25.7329 22.3197 26.502 23.6463C26.9209 24.3654 27.3732 24.8406 27.8713 25.0959C27.2784 25.6992 26.6865 26.7247 26.1373 28.1294C22.4618 37.8866 23.63 42.9168 26.0081 44.2643C26.0112 50.2564 26.0247 57.301 26.0362 60.5294C26.0372 61.5038 26.0393 62.2145 26.0414 62.5834C25.6662 62.9189 25.2411 63.6776 25.1171 64.4383C24.9805 65.2803 25.2036 66.0202 25.7611 66.5798C27.2398 68.0575 36.9907 70.0167 42.8651 70.0167C48.7415 70.0167 58.4882 68.0575 59.9701 66.5798C60.5266 66.0202 60.7517 65.2803 60.6173 64.4383C60.4943 63.6786 60.066 62.92 59.6929 62.5823ZM59.2188 18.0023C59.8096 18.2462 59.8888 18.4046 59.7554 19.0517C59.7315 19.159 59.7044 19.3299 59.6742 19.5467C59.547 20.4356 59.3042 22.0894 58.6039 23.2951C58.4351 23.588 58.1819 23.911 57.8776 24.1663C57.6785 24.3341 57.1033 24.6196 57.0387 23.5786C56.9949 22.897 57.0814 22.2197 57.3336 21.5548C57.9797 19.8552 58.2538 18.786 58.3121 17.6292L59.2188 18.0023ZM51.3728 14.4435C48.9968 14.3258 47.4868 15.5388 46.5948 16.6976C45.9059 17.1811 44.5085 17.9731 42.7838 17.921C41.006 17.921 39.5991 17.0634 38.953 16.5861C38.0495 15.4596 36.5604 14.331 34.2584 14.4435C30.5339 14.6176 28.9968 17.4937 28.4643 19.4404C28.2704 18.664 28.1433 17.9147 28.0954 17.1988L29.1385 16.8456C29.2219 16.8185 29.2813 16.7372 29.2823 16.6465L29.3053 14.999C30.0181 14.7353 33.5831 13.4775 38.952 12.8189C39.0604 12.8043 39.1364 12.7147 39.1364 12.6084V12.0321H46.1404V12.6084C46.1404 12.7168 46.2227 12.8085 46.3301 12.8189C46.3895 12.8262 52.1148 13.44 56.4593 15.0823V16.6246C56.4593 16.7122 56.5114 16.7893 56.5906 16.8226C56.6073 16.8268 56.9324 16.9602 57.6223 17.1926C57.616 17.9856 57.5201 18.6828 57.2742 19.5529C56.7427 17.6386 55.1952 14.6196 51.3728 14.4435ZM54.8982 16.6684C54.6929 17.0144 53.5008 18.7797 50.9851 18.4056C49.9201 18.2462 49.1906 17.6574 48.7581 17.0821C48.2861 16.461 48.432 15.9045 48.5727 15.8201C49.2907 15.3824 50.2015 15.0917 51.3384 15.1428C52.9307 15.2199 54.0791 15.8462 54.8982 16.6684ZM45.6923 18.7474C45.71 18.7537 47.3586 19.3143 48.6831 20.9421C48.7884 21.0942 48.4528 21.3912 48.2142 21.3287C47.6733 21.187 46.4843 20.9296 45.7277 21.9185C45.7215 21.9279 45.7121 21.9341 45.7069 21.9425C45.6329 22.0196 44.7158 22.945 42.8807 22.945C41.0153 22.945 39.9993 21.9769 39.9472 21.9248C38.8822 20.9639 37.864 21.2453 37.2575 21.3308C36.9657 21.3735 36.6521 21.1609 36.8188 20.9191C38.1516 19.3122 39.9097 18.7568 39.9284 18.7505C40.0962 18.6807 40.1848 18.4952 40.1316 18.3212C40.1233 18.3066 39.9597 18.1607 39.5679 17.4864C40.3619 17.9189 41.4687 18.3431 42.7754 18.3431C42.8369 18.3441 42.8911 18.3441 42.9526 18.3441C44.199 18.3441 45.2609 17.9523 46.0299 17.5417C45.661 18.1878 45.5026 18.3066 45.4974 18.3212C45.4464 18.4921 45.5308 18.6745 45.6923 18.7474ZM37.0303 16.955C36.5989 17.5584 35.857 18.2357 34.7117 18.4066C32.1387 18.787 30.9507 16.9331 30.7809 16.6465C31.5864 15.8337 32.7192 15.2178 34.2876 15.1449C35.4193 15.0938 36.3113 15.3939 37.0366 15.8076C37.2898 15.9494 37.3857 16.4579 37.0303 16.955ZM28.087 11.1036C29.0333 10.7618 32.764 9.44874 35.7204 8.95374C35.7423 8.96729 35.7704 8.98396 35.7996 9.00271C37.9297 10.3053 40.2973 10.9629 42.8369 10.9629C45.3734 10.9629 47.74 10.3053 49.869 9.00271C49.9013 8.98396 49.9284 8.96624 49.9503 8.95374C52.9078 9.44874 56.6708 10.7618 57.6223 11.1036C57.6223 11.1463 57.6212 11.1891 57.6212 11.2328V16.7445C57.2648 16.6236 57.0178 16.5329 56.8824 16.4819V14.9364C56.8824 14.8489 56.8292 14.7697 56.7459 14.7374C52.7848 13.2107 47.6129 12.5438 46.5645 12.4187V11.8216C46.5645 11.7028 46.4707 11.608 46.353 11.608H38.9238C38.8082 11.608 38.7144 11.7028 38.7144 11.8216V12.4219C32.7723 13.1722 29.052 14.6405 29.0135 14.6561C28.9343 14.6884 28.8822 14.7645 28.879 14.851L28.8582 16.4933L28.087 16.7549V11.2318C28.0891 11.188 28.087 11.1463 28.087 11.1036ZM27.2127 8.98605C27.1012 8.8735 26.922 8.64944 26.971 8.39621C27.0262 8.1211 27.3232 7.85952 27.8203 7.64901C34.7263 4.63526 41.3051 4.48312 42.5525 4.48312C42.7484 4.48312 42.8505 4.48522 42.8786 4.48522C42.8817 4.48522 42.987 4.48312 43.1798 4.48312C44.4293 4.48312 51.0091 4.63527 57.9182 7.65111C58.409 7.85953 58.7113 8.12214 58.7634 8.39621C58.8123 8.64944 58.6352 8.8735 58.5226 8.98605C58.4403 9.06942 58.3632 9.13819 58.2934 9.20072C57.9245 9.53836 57.74 9.76657 57.6639 10.372C56.4301 9.93643 52.8036 8.70052 49.9503 8.24095C49.9295 8.23887 49.9118 8.23885 49.893 8.23885C49.7784 8.23885 49.7075 8.27844 49.5053 8.40349C47.4868 9.63838 45.2421 10.2626 42.839 10.2626C40.4307 10.2626 38.1871 9.63838 36.1675 8.40349C35.933 8.25864 35.8559 8.22219 35.7236 8.24095C32.8734 8.70052 29.2771 9.93226 28.0537 10.372C27.9797 9.75823 27.7942 9.52689 27.4295 9.19133C27.3649 9.13089 27.2919 9.06525 27.2127 8.98605ZM27.4868 23.8589C27.3586 23.6974 27.2336 23.5098 27.1085 23.2941C26.4082 22.0884 26.1665 20.4346 26.0383 19.5457C26.0091 19.3289 25.9799 19.158 25.9591 19.0486C25.8246 18.4119 25.9007 18.2659 26.502 17.9992C26.8146 17.8595 27.1617 17.7178 27.4284 17.6084C27.5504 18.862 27.8786 20.1865 28.4007 21.5538C28.6237 22.1394 28.6498 22.8387 28.5706 23.5952C28.4789 24.4425 27.7671 24.2111 27.4868 23.8589ZM59.473 66.0838C58.3538 67.2072 49.1583 69.3132 42.8661 69.3132C39.1948 69.3132 34.5335 68.5963 31.0654 67.7741H30.0087V67.5104C28.0714 67.004 26.6583 66.4798 26.2592 66.0838C25.8747 65.6982 25.7225 65.2043 25.8028 64.6134C25.908 63.8193 26.3999 63.1576 26.5489 63.0732C26.5531 63.07 26.5562 63.0659 26.5614 63.0659C27.0543 63.2753 28.2486 63.7536 30.0097 64.2736V63.8287C28.3549 63.3358 27.22 62.8835 26.7448 62.6803C26.7448 62.3541 26.7427 61.6048 26.7386 60.5252C26.7323 58.639 26.724 55.7638 26.7177 52.5042C27.3284 52.6334 28.6258 52.9137 30.0087 53.1732V53.019L31.5802 52.9272C29.6669 52.6011 27.468 52.2332 26.7177 52.0696C26.7177 51.4996 26.7156 50.9212 26.7156 50.3314C27.2523 50.4752 31.006 51.4527 36.3895 51.9769C36.8657 52.3447 37.343 52.7115 37.7484 53.019H38.3194C38.3194 53.019 36.0706 51.3047 34.7294 50.2532C34.621 50.4054 34.6481 50.6138 34.793 50.7305C35.0597 50.942 35.3953 51.2047 35.7559 51.4871C30.388 50.9108 26.8105 49.9166 26.7625 49.9031C26.7469 49.901 26.7334 49.902 26.7167 49.901C26.7167 48.4452 26.7125 46.9404 26.7125 45.4471C27.1606 45.0761 29.0062 44.8843 30.7131 44.8843C30.8226 44.8843 30.9153 44.9625 30.9789 44.8843C30.8851 44.6968 30.7975 44.5654 30.7152 44.3695L30.7131 44.1819C28.6362 44.1819 27.8401 44.2924 26.4968 43.7255C25.3203 43.2295 24.4272 41.6486 24.5189 37.895C24.5637 36.1192 25.0868 33.9225 25.0868 33.9225C25.4589 32.301 26.0101 30.4627 26.7928 28.3847C27.4462 26.7195 28.0287 25.9275 28.4111 25.5492L28.9832 24.902C29.3126 23.4087 29.4407 22.3156 29.0552 21.3037C29.0114 21.1828 28.9687 21.0609 28.9259 20.941C28.9259 20.272 29.2782 18.3629 30.536 16.9133C30.8288 17.3645 31.948 18.811 34.0458 18.811C34.2771 18.811 34.5168 18.7943 34.7648 18.7557C36.651 18.4765 37.5108 16.9925 37.7932 16.3631C38.6821 17.1613 39.1625 17.7647 39.3563 18.243C38.7206 18.5577 37.2315 19.2153 36.0852 20.7107V20.7128C36.0831 20.7138 36.0831 20.7138 36.0831 20.7138C36.0727 20.7253 35.8267 21.1098 36.0581 21.3787V21.3808V21.3829C36.1341 21.5215 36.8303 22.3135 39.5658 22.5094C40.018 22.921 41.1696 23.6463 42.8828 23.6463C44.6158 23.6463 45.7058 22.92 46.1216 22.5094C48.8915 22.3041 49.3678 21.4465 49.447 21.3349C49.6096 21.1099 49.473 20.8118 49.4011 20.7138C48.26 19.2257 46.8699 18.5682 46.2727 18.2514C46.4666 17.7678 46.9595 17.1322 47.8859 16.3224C48.1527 16.9248 49.003 18.4692 50.9309 18.7547C51.1842 18.7933 51.4238 18.8099 51.651 18.8099C53.7196 18.8099 54.8346 17.4041 55.1504 16.9341C56.4541 18.4233 56.8084 20.3814 56.8084 20.94L56.8125 20.9442C56.7698 21.0609 56.7271 21.1797 56.6781 21.3026C56.2279 22.4813 56.2654 23.7891 56.5947 24.901L57.7077 26.1744C58.0568 26.6694 58.4632 27.4145 58.8436 28.5233C59.7336 30.8941 60.3192 32.9491 60.6996 34.7124C60.9862 36.0306 61.1498 38.1263 61.1498 38.1263C61.2717 41.2307 60.3578 43.1763 59.1833 43.6828C57.9339 44.2226 56.8793 44.1997 55.4776 44.1997C55.462 44.1997 55.4516 44.2049 55.438 44.2059V44.3643H55.4015C55.4015 44.5582 55.1567 44.7134 55.3505 44.7134C56.5447 44.7134 57.764 44.6884 58.953 45.446C58.953 47.0123 58.9551 48.5213 58.9572 50.0406C57.2502 50.5002 55.363 50.8462 53.5393 51.1067C53.6279 51.2307 53.7144 51.362 53.8019 51.4965C55.3526 51.262 56.9074 50.9587 58.3038 50.643C58.8436 50.52 58.9582 50.7618 58.9582 51.3818C58.9582 51.9987 58.8592 52.0748 58.3767 52.1738C57.5003 52.3572 56.0174 52.6626 54.5929 52.9137C54.6523 53.0461 54.7159 53.1794 54.77 53.3149C56.4999 53.0054 58.283 52.6302 58.9603 52.4864C58.9676 55.7357 58.9791 58.6077 58.9832 60.5242C58.9832 61.5975 58.9864 62.352 58.9864 62.6782C58.2611 62.9804 56.0331 63.8433 52.7598 64.5644C52.5952 64.7562 52.4253 64.9406 52.2534 65.1073C55.907 64.3518 58.3976 63.3858 59.1677 63.0617C59.1729 63.0659 59.176 63.069 59.1823 63.0732C59.3334 63.1565 59.8232 63.8193 59.9315 64.6134C60.0118 65.2053 59.8576 65.6982 59.473 66.0838ZM48.4935 24.3602C48.432 24.3602 48.3757 24.3664 48.3288 24.3758C46.452 24.7572 43.0922 24.7676 42.7213 24.7676C42.3492 24.7676 38.9916 24.7572 37.1137 24.3758C37.0627 24.3675 37.0074 24.3602 36.948 24.3602C36.4051 24.3602 35.6808 24.7999 35.4099 25.619C35.2473 26.0984 35.3547 26.6684 35.6965 27.1426C36.0049 27.5698 36.4291 27.822 36.8323 27.822H42.7202H48.606C49.0124 27.822 49.4324 27.5688 49.7419 27.1426C50.0837 26.6674 50.191 26.0984 50.0326 25.619C49.7596 24.801 49.0353 24.3602 48.4935 24.3602ZM47.9953 25.0823C48.1537 25.0573 48.3069 25.0208 48.4528 25.001C48.7008 24.9666 49.0739 25.098 49.2063 25.4033C49.2323 25.4669 49.2125 25.6169 48.8478 25.6961C48.5893 25.7514 48.2402 25.7993 47.7994 25.8524L47.9953 25.0823ZM39.4647 25.2949C40.9851 25.3981 42.7213 25.4033 42.7213 25.4033C42.7213 25.4033 44.4553 25.3981 45.9747 25.2949L46.2873 25.9858C45.2234 26.065 43.9551 26.1057 42.7213 26.1057C41.4864 26.1057 40.2192 26.065 39.1531 25.9858L39.4647 25.2949ZM36.2363 25.4033C36.3697 25.098 36.7396 24.9666 36.9887 25.001C37.1356 25.0208 37.2877 25.0573 37.4461 25.0823L37.6421 25.8524C37.2002 25.7993 36.8532 25.7514 36.5916 25.6961C36.2311 25.6159 36.2081 25.4669 36.2363 25.4033ZM36.8334 27.1874C36.6437 27.1874 36.3936 27.0196 36.2165 26.7695C36.1081 26.6226 36.0393 26.4631 36.0028 26.3089C35.9487 26.0754 36.1258 26.0046 36.4103 26.0525C36.7261 26.1057 37.1596 26.1849 37.7452 26.2505L37.9818 27.1874H36.8334ZM38.2152 26.56C38.1464 26.2964 37.8588 25.1417 37.8588 25.1417C38.2423 25.1897 38.6487 25.2314 39.0572 25.2647C39.0572 25.2647 38.5622 26.3693 38.4737 26.56C38.3747 26.7757 38.2871 26.8372 38.2152 26.56ZM42.7213 27.1874H38.6143L38.9864 26.3599L38.9906 26.362C40.0983 26.4475 41.427 26.4892 42.7213 26.4892C44.0155 26.4892 45.3411 26.4475 46.452 26.362V26.3599L46.8261 27.1874H42.7213ZM46.9678 26.56C46.8803 26.3683 46.3832 25.2647 46.3832 25.2647C46.7928 25.2314 47.2013 25.1897 47.5837 25.1417C47.5837 25.1417 47.2961 26.2964 47.2294 26.56C47.1564 26.8372 47.0658 26.7757 46.9678 26.56ZM49.225 26.7695C49.0479 27.0196 48.7978 27.1874 48.6081 27.1874H47.4607L47.6983 26.2505C48.2819 26.1849 48.7185 26.1057 49.0301 26.0525C49.3146 26.0046 49.4949 26.0754 49.4386 26.3089C49.4032 26.4631 49.3344 26.6226 49.225 26.7695Z" fill="#8F141B"/>
</svg>
